inDegrees=yes
name=ik_S50_A03_T01
DataType=double
version=3
OpenSimVersion=4.3-2021-08-27-4bc7ad9
endheader
time	pelvis_tilt	pelvis_list	pelvis_rotation	pelvis_tx	pelvis_ty	pelvis_tz	hip_flexion_r	hip_adduction_r	hip_rotation_r	knee_angle_r	knee_angle_r_beta	ankle_angle_r	subtalar_angle_r	mtp_angle_r	hip_flexion_l	hip_adduction_l	hip_rotation_l	knee_angle_l	knee_angle_l_beta	ankle_angle_l	subtalar_angle_l	mtp_angle_l	lumbar_extension	lumbar_bending	lumbar_rotation	arm_flex_r	arm_add_r	arm_rot_r	elbow_flex_r	pro_sup_r	wrist_flex_r	wrist_dev_r	arm_flex_l	arm_add_l	arm_rot_l	elbow_flex_l	pro_sup_l	wrist_flex_l	wrist_dev_l
29.15999999999947	2.214362342228578	-6.883986185586608	-84.34465624982928	0	0.9399999999999999	0	-6.941922541580024	-4.252227654033116	-10.78233586049575	27.46846240480087	0.4794151094240547	0	0	0	10.80041647440373	-0.1866540351895622	-10.94156532863707	10.92332961817476	0.1906480671177646	0	0	0	0	0	0	43.55039546087907	-43.55039546087907	4.986977821749762	84.81493235145125	85.01302245203885	0	0	43.55039546087907	-43.55039546087907	4.986977821749762	84.81493235145125	85.0130224520362	0	0
29.17999999999947	2.474537771288419	-6.905586848482041	-84.95578074387157	0	0.9399999999999999	0	-4.110392233235149	-5.090907985741699	-9.572888796915406	33.00897215708716	0.5761152468403059	0	0	0	9.697950520884138	0.1961554311014204	-11.86855301447921	10.80784709983118	0.1886325169441743	0	0	0	0	0	0	43.57366172232384	-43.57366172232384	4.987328250030736	84.81991259834658	85.01267202377021	0	0	43.57366172232384	-43.57366172232384	4.987328250030736	84.81991259834658	85.01267202376768	0	0
29.19999999999947	2.700937793394194	-6.912677204997444	-85.24919360222356	0	0.9399999999999999	0	-1.277986659801945	-6.001983820184764	-8.647085477394729	37.90330541561922	0.6615374768915532	0	0	0	8.745294738175838	0.8160292148816432	-11.47074678707399	10.54974130607065	0.1841277210245797	0	0	0	0	0	0	43.5905736415133	-43.5905736415133	4.987582940516356	84.82353223063591	85.01241733329357	0	0	43.5905736415133	-43.5905736415133	4.987582940516356	84.82353223063591	85.01241733329114	0	0
29.21999999999947	3.650593173615721	-6.940885780344239	-85.92242105415284	0	0.9399999999999999	0	0.8954960610772482	-7.328689788872885	-7.264700052104662	41.88826138338399	0.7310880790760454	0	0	0	8.141403256111355	1.869882151264836	-11.66452680579118	10.83653636718054	0.1891332391194056	0	0	0	0	0	0	43.60386023028295	-43.60386023028295	4.987781693574741	84.82635688634163	85.01221858024215	0	0	43.60386023028295	-43.60386023028295	4.987781693574741	84.82635688634163	85.01221858023979	0	0
29.23999999999947	3.940515596984576	-6.975674229886848	-86.03698558507676	0	0.9399999999999999	0	2.563989665846996	-7.582068417220661	-7.456070013881227	44.4393632472548	0.7756132061543553	0	0	0	7.57731361479829	2.197880416671329	-11.15705229529983	11.20340970392885	0.1955363867834415	0	0	0	0	0	0	43.61099775959562	-43.61099775959562	4.987888683990493	84.82787742191729	85.01211158983014	0	0	43.61099775959562	-43.61099775959562	4.987888683990493	84.82787742191729	85.0121115898278	0	0
29.25999999999947	4.280178204699731	-6.969231540278129	-86.03988695738585	0	0.9399999999999999	0	4.315011215151334	-7.080734440976809	-7.952428720142466	47.19483898288587	0.8237053301999302	0	0	0	7.014302545259831	2.819250450155957	-10.33382446145428	11.31241125433257	0.197438822727765	0	0	0	0	0	0	43.61662595008502	-43.61662595008502	4.987973375818221	84.82908105255314	85.0120268980054	0	0	43.61662595008502	-43.61662595008502	4.987973375818221	84.82908105255314	85.01202689800316	0	0
29.27999999999946	4.117098937881742	-6.874813179243959	-85.51950764265921	0	0.9399999999999999	0	6.073532029503219	-7.29665377183075	-9.149716023683341	48.68542607291801	0.8497209827087122	0	0	0	6.477070355540656	3.151779365208074	-8.810104571280487	11.22563404408629	0.1959242746932721	0	0	0	0	0	0	43.62076501147194	-43.62076501147194	4.988035603389846	84.82996542371687	85.011964670436	0	0	43.62076501147194	-43.62076501147194	4.988035603389846	84.82996542371687	85.01196467043376	0	0
29.29999999999946	3.887775160826551	-7.213120532196543	-85.37749766372009	0	0.9399999999999999	0	9.085134634746145	-7.394725176046459	-8.964148380515036	51.13538532168507	0.8924808381393842	0	0	0	5.436748709804649	3.296367135524614	-7.732546073116152	11.02991705400601	0.1925083688142782	0	0	0	0	0	0	43.62858068090566	-43.62858068090566	4.988151063142864	84.831606324275	85.01184921068702	0	0	43.62858068090566	-43.62858068090566	4.988151063142864	84.831606324275	85.01184921068479	0	0
29.31999999999946	3.709171784923659	-7.624448983869438	-85.21548956955196	0	0.9399999999999999	0	8.607106815298959	-7.426467105420568	-9.401169549479981	49.71772566853505	0.8677380095192355	0	0	0	4.14696644343962	3.404301854043872	-7.185277817161455	10.80191114952821	0.1885289150671528	0	0	0	0	0	0	43.62885337846283	-43.62885337846283	4.988155788859992	84.83167348572033	85.01184448497001	0	0	43.62885337846283	-43.62885337846283	4.988155788859992	84.83167348572033	85.0118444849678	0	0
29.33999999999946	3.556810113559383	-7.843862545037178	-85.08853011514471	0	0.9399999999999999	0	11.75338630804941	-6.889361164756846	-8.284819135930968	48.97505360746775	0.8547759367910388	0	0	0	3.087505369485354	3.235225858017966	-7.736876046940741	10.86783185275418	0.189679448383676	0	0	0	0	0	0	43.63434054369868	-43.63434054369868	4.988236824629249	84.8328251566294	85.01176344920358	0	0	43.63434054369868	-43.63434054369868	4.988236824629249	84.8328251566294	85.01176344920138	0	0
29.35999999999946	3.444112920956952	-7.893109957817249	-84.81571694662826	0	0.9399999999999999	0	13.13493518402473	-6.450878511139113	-7.666256263326989	47.65502915826389	0.8317371639456068	0	0	0	2.092346007270355	2.921917977511002	-8.572164197171142	10.69168410170168	0.1866050901578266	0	0	0	0	0	0	43.63725784096518	-43.63725784096518	4.988281210656499	84.83345596586362	85.01171906317789	0	0	43.63725784096518	-43.63725784096518	4.988281210656499	84.83345596586362	85.0117190631757	0	0
29.37999999999946	3.357431348103745	-7.82391079475692	-84.54925464469102	0	0.9399999999999999	0	13.25793543412919	-6.15543189773842	-8.180961247977516	44.18176379118916	0.7711172474946631	0	0	0	1.229015683854477	2.657828176988205	-9.469695891130327	10.60948994396825	0.1851705314794746	0	0	0	0	0	0	43.6378265000294	-43.6378265000294	4.988291043100271	84.83359570361537	85.01170923073454	0	0	43.6378265000294	-43.6378265000294	4.988291043100271	84.83359570361537	85.01170923073235	0	0
29.39999999999946	3.338861903249481	-7.787163417672088	-84.38640878501199	0	0.9399999999999999	0	14.41769738465904	-6.032690122299523	-7.558839834853996	43.52551827960426	0.7596636026160722	0	0	0	0.3436749945819969	2.564750286610863	-10.1756569579079	10.48327513886832	0.1829676675657179	0	0	0	0	0	0	43.63826046698232	-43.63826046698232	4.988298549445949	84.83370238308328	85.0117017243891	0	0	43.63826046698232	-43.63826046698232	4.988298549445949	84.83370238308328	85.01170172438691	0	0
29.41999999999946	3.295847967527751	-7.759872383612106	-84.01700242304092	0	0.9399999999999999	0	15.73308983392308	-5.634417263845479	-6.6338021660869	40.7467573496961	0.7111650752633953	0	0	0	0.337313837522811	2.53040181004528	-9.786884748013891	10.39363134614601	0.1814030882287383	0	0	0	0	0	0	43.64203327426938	-43.64203327426938	4.988354587426256	84.83449878836902	85.01164568641074	0	0	43.64203327426938	-43.64203327426938	4.988354587426256	84.83449878836902	85.01164568640856	0	0
